<svg width="32" height="32" viewBox="0 0 1971 2176" xmlns="http://www.w3.org/2000/svg">
<path d="M559.104 1215.14C452.304 1234.34 296.27 1109.48 231.604 1044.64C332.104 1251.48 547.904 1659.44 607.104 1636.64C681.104 1608.14 876.104 1481.64 961.104 1234.64C1029.1 1037.04 1084.1 989.308 1103.1 990.142C1127.77 978.475 1208.6 951.642 1334.6 937.642C1460.6 923.642 1387.1 818.142 1334.6 767.142H1077.1L1039.6 736.642H943.604C807.203 603.842 830.104 749.642 858.604 839.142C758.104 867.142 692.604 1191.14 559.104 1215.14Z"/>
<path fill-rule="evenodd" clip-rule="evenodd" d="M1164.31 48.2369C1053.5 -16.079 916.713 -16.079 805.899 48.2369L177.795 412.786C67.7363 476.663 0 594.296 0 721.549V1453.91C0 1581.16 67.7363 1698.79 177.795 1762.67L805.899 2127.22C916.713 2191.53 1053.49 2191.53 1164.31 2127.22L1792.41 1762.67C1902.47 1698.79 1970.21 1581.16 1970.21 1453.91V721.549C1970.21 594.296 1902.47 476.663 1792.41 412.786L1164.31 48.2369ZM985.104 1710.23C1328.9 1710.23 1607.6 1431.52 1607.6 1087.73C1607.6 743.93 1328.9 465.227 985.104 465.227C641.307 465.227 362.604 743.93 362.604 1087.73C362.604 1431.52 641.307 1710.23 985.104 1710.23Z"/>
</svg>
